# xmcd
#
# Track frame offsets: 
#        150
#        16761
#        37735
#        54245
#        81155
#        93250
#        111563
#        133780
#        152053
#        170933
#        184281
#
# Disc length: 2733 seconds
#
# Revision: 0
# Processed by: cddbd v1.5.2PL0 Copyright (c) Steve Scherf et al.
# Submitted via: ExactAudioCopy v0.99pb4
#
DISCID=8a0aab0b
DTITLE=Cajun Du Nord - Cajun Du Nord In Louisiana
DYEAR=2000
DGENRE=Country
TTITLE0=Danse De Limonade
TTITLE1=Attention, C'est Mon Coeur Qui Va Vasser
TTITLE2=Port Arthur Blues
TTITLE3=Dans La Louisiane
TTITLE4=Ton Papa M'a Jeté Dehors
TTITLE5=Traces De Mon Boghei
TTITLE6=Blues De Tac-Tac
TTITLE7=Allons Dancer
TTITLE8=Branche Du Mûrier
TTITLE9=Going To The Zydeco
TTITLE10=Flammes D'enfer
EXTD=
EXTT0=
EXTT1=
EXTT2=
EXTT3=
EXTT4=
EXTT5=
EXTT6=
EXTT7=
EXTT8=
EXTT9=
EXTT10=
PLAYORDER=
